<svg xmlns="http://www.w3.org/2000/svg" xmlns:xlink="http://www.w3.org/1999/xlink" width="394.9" height="59.721" viewBox="0 0 394.9 59.721">
  <defs>
    <clipPath id="clip-path">
      <path id="Clip_16" data-name="Clip 16" d="M0,0H21.782V57.3H0Z" transform="translate(0.202 0.066)" fill="none"/>
    </clipPath>
    <clipPath id="clip-path-2">
      <path id="Clip_23" data-name="Clip 23" d="M0,0H23.889V34.687H0Z" transform="translate(0.203 0.141)" fill="none"/>
    </clipPath>
    <clipPath id="clip-path-3">
      <path id="Clip_26" data-name="Clip 26" d="M0,0H31.127V48.169H0Z" transform="translate(0 0.067)" fill="none"/>
    </clipPath>
  </defs>
  <g id="Group_36" data-name="Group 36" transform="translate(0 0)">
    <path id="Fill_1" data-name="Fill 1" d="M21.15,10.041a36.557,36.557,0,0,1-6.886-.983l-1.335,1.123V23.874c0,7.654.492,8.426,4.005,9.338l.281.071v1.4c-1.195,0-7.1-.071-9.345-.071s-6.675.071-7.869.071v-1.4l.632-.211c2.108-.7,2.53-1.615,2.53-9.058v-12.5c0-4.282-.492-5.476-2.389-6.951L.069,4V2.808L11.945,0l.983.773V7.724C16.512,1.053,17.917.071,20.236.071s3.654,1.615,3.654,4.353c0,4.283-1.264,5.618-2.74,5.618" transform="translate(86.618 15.907)" fill="#191919"/>
    <path id="Fill_3" data-name="Fill 3" d="M15.88,34.476c-1.054,0-5.411-.071-7.729-.071-2.178,0-7.1.071-8.151.071v-1.4l.633-.211c1.9-.632,2.389-1.615,2.389-9.058V11.375c0-4.142-.562-5.547-2.389-6.952L0,3.932V2.809L11.8,0l1.125.843V23.8c0,7.373.492,8.5,2.249,9.058l.7.211Z" transform="translate(111.595 16.117)" fill="#191919"/>
    <path id="Fill_5" data-name="Fill 5" d="M12.227,35.39a10.8,10.8,0,0,1-8.564-4.283C1.266,28.083,0,23.761,0,18.608a24.993,24.993,0,0,1,1.146-7.676,18.575,18.575,0,0,1,3.07-5.866,13.9,13.9,0,0,1,4.44-3.747A11.247,11.247,0,0,1,13.912,0a9.485,9.485,0,0,1,8.344,4.082c1.758,2.567,2.686,6.368,2.757,11.3H8.713C9.324,23.865,13.1,29.35,18.338,29.35c1.2,0,2.7-.239,5.271-3.089l.842,1.264a19.36,19.36,0,0,1-5.613,6.145A11.849,11.849,0,0,1,12.227,35.39ZM12.085,2.528a2.3,2.3,0,0,0-1.684.715C9.092,4.564,8.454,7.8,8.5,12.85h6.886C15.164,5.037,14.362,2.528,12.085,2.528Z" transform="translate(128.036 15.766)" fill="#191919"/>
    <path id="Fill_7" data-name="Fill 7" d="M31.548,34.687c-1.054,0-5.762-.071-8.01-.071-2.178,0-6.184.071-7.378.071v-1.4l.281-.071c1.9-.491,2.459-1.965,2.459-8.075V11.445c0-4.143-1.335-5.758-3.794-5.758a6.6,6.6,0,0,0-2.179.281V25.137c0,6.109.773,7.583,2.6,8.075l.281.071v1.4c-1.194,0-5.621-.071-7.869-.071-2.178,0-6.746.071-7.94.071v-1.4l.632-.211c1.968-.632,2.53-1.615,2.53-9.058v-12.5c0-4.282-.7-5.616-2.389-6.951L.07,4V2.808L11.945,0l.983.772V4.284A12.983,12.983,0,0,1,21.782.14c4.638,0,6.956,3.16,6.956,9.339V24.014c0,7.513.492,8.5,2.6,9.2l.211.071Z" transform="translate(153.75 15.907)" fill="#191919"/>
    <path id="Fill_9" data-name="Fill 9" d="M20.377,41.708a10.676,10.676,0,0,1-8.221,3.722c-4.849,0-8.221-2.317-8.221-8.426V14.886H0V12.92l4.637-2.387L10.258,0H13.7V11.235h6.113v3.651H13.7V37.425c0,2.739,1.2,3.582,2.67,3.582a4.894,4.894,0,0,0,2.951-.843Z" transform="translate(184.242 5.585)" fill="#191919"/>
    <path id="Fill_11" data-name="Fill 11" d="M31.127,35.037,28.949,48.1H23.187c-3.021,0-11.1-.071-12.929-.071S1.124,48.169,0,48.169v-1.4l1.054-.351c3.091-1.053,3.724-2.106,3.724-11.444V13.2c0-9.339-.633-10.393-3.724-11.446L0,1.4V0C.984,0,7.588.14,9.415.14,11.383.14,19.744,0,20.728,0V1.4L19.042,1.9c-3.513,1.053-3.865,1.9-3.865,11.3V37c0,7.373,1.406,8.636,3.795,8.636h.281c2.248,0,4.778-2.107,8.221-7.443l2.037-3.16Z" transform="translate(220.973 2.425)" fill="#191919"/>
    <path id="Fill_13" data-name="Fill 13" d="M12.227,35.39a10.8,10.8,0,0,1-8.564-4.283C1.266,28.083,0,23.761,0,18.608a24.993,24.993,0,0,1,1.146-7.676,18.575,18.575,0,0,1,3.07-5.866,13.9,13.9,0,0,1,4.44-3.747A11.247,11.247,0,0,1,13.912,0a9.485,9.485,0,0,1,8.344,4.082c1.758,2.567,2.686,6.368,2.757,11.3H8.713C9.324,23.865,13.1,29.35,18.338,29.35c1.2,0,2.7-.239,5.27-3.089l.842,1.264a19.355,19.355,0,0,1-5.612,6.145A11.848,11.848,0,0,1,12.227,35.39ZM12.085,2.528a2.3,2.3,0,0,0-1.685.715C9.092,4.565,8.453,7.8,8.5,12.85h6.886C15.164,5.037,14.362,2.528,12.085,2.528Z" transform="translate(253.222 15.766)" fill="#191919"/>
    <g id="Group_17" data-name="Group 17" transform="translate(288.992 2.359)">
      <path id="Clip_16-2" data-name="Clip 16" d="M0,0H21.782V57.3H0Z" transform="translate(0.202 0.066)" fill="none"/>
      <g id="Group_17-2" data-name="Group 17" clip-path="url(#clip-path)">
        <path id="Fill_15" data-name="Fill 15" d="M21.782,1.4l-1.194.351c-3.022.913-3.373,1.615-3.373,11.445V37.636c0,10.743-4.076,14.745-16.653,19.66L0,55.893c5.551-3.371,6.886-7.162,6.886-14.184V13.2c0-9.831-.21-10.6-3.232-11.445L2.389,1.4V0c.913,0,7.8.14,9.626.14C13.912.14,20.8,0,21.782,0Z" transform="translate(0.202 0.066)" fill="#191919"/>
      </g>
    </g>
    <path id="Fill_18" data-name="Fill 18" d="M13.912,35.39A13.859,13.859,0,0,1,8.092,34.2a11.8,11.8,0,0,1-4.377-3.473A16.14,16.14,0,0,1,.958,25.111,28.059,28.059,0,0,1,0,17.484,20.469,20.469,0,0,1,3.706,5.161,12.558,12.558,0,0,1,14.054,0a13.956,13.956,0,0,1,5.86,1.2,11.889,11.889,0,0,1,4.4,3.481,16.114,16.114,0,0,1,2.765,5.6,27.588,27.588,0,0,1,.96,7.556,20.683,20.683,0,0,1-3.663,12.411A12.637,12.637,0,0,1,13.912,35.39ZM13.631,2.458c-2.886,0-3.373,3.068-3.373,12.289,0,6.365.255,10.468.826,13.305.661,3.284,1.793,4.88,3.461,4.88,1.381,0,2.163-.764,2.618-2.554.437-1.722.615-4.521.615-9.663a74.75,74.75,0,0,0-.808-13.341C16.326,4.066,15.234,2.458,13.631,2.458Z" transform="translate(309.991 15.766)" fill="#191919"/>
    <path id="Fill_20" data-name="Fill 20" d="M31.479,34.476c-2.6-.071-8.361,0-11.523.069l-1.124-4c-2.67,2.668-5.9,4.282-8.853,4.282-4.638,0-6.956-3.229-6.956-9.479V11.375c0-4.142-.422-5.2-2.46-6.952L0,3.932V2.809L11.8,0l1.124.843v22.68c0,4.143,1.265,5.757,3.724,5.757A7.708,7.708,0,0,0,18.831,29V12.007c0-4.283-.984-5.9-3.091-7.584l-.633-.491V2.809L27.614,0,28.6.843V23.8c0,7.513.492,8.5,2.67,9.2l.211.071Z" transform="translate(338.796 16.117)" fill="#191919"/>
    <g id="Group_24" data-name="Group 24" transform="translate(370.807 15.765)">
      <path id="Clip_23-2" data-name="Clip 23" d="M0,0H23.889V34.687H0Z" transform="translate(0.203 0.141)" fill="none"/>
      <g id="Group_24-2" data-name="Group 24" clip-path="url(#clip-path-2)">
        <path id="Fill_22" data-name="Fill 22" d="M21.15,10.041a36.553,36.553,0,0,1-6.886-.983l-1.335,1.123V23.874c0,7.654.492,8.426,4.005,9.338l.281.071v1.4c-1.2,0-7.1-.071-9.346-.071s-6.675.071-7.869.071v-1.4l.632-.211c2.108-.7,2.53-1.615,2.53-9.058v-12.5c0-4.282-.492-5.476-2.389-6.951L.069,4V2.808L11.945,0l.983.773V7.724C16.512,1.053,17.917.071,20.236.071S23.89,1.686,23.89,4.424c0,4.283-1.265,5.618-2.74,5.618" transform="translate(0.203 0.141)" fill="#191919"/>
      </g>
    </g>
    <g id="Group_27" data-name="Group 27" transform="translate(0 2.359)">
      <path id="Clip_26-2" data-name="Clip 26" d="M0,0H31.127V48.169H0Z" transform="translate(0 0.067)" fill="none"/>
      <g id="Group_27-2" data-name="Group 27" clip-path="url(#clip-path-3)">
        <path id="Fill_25" data-name="Fill 25" d="M31.127,35.037,28.949,48.1H23.187c-3.022,0-11.1-.071-12.929-.071S1.124,48.169,0,48.169v-1.4l1.054-.351c3.091-1.053,3.724-2.106,3.724-11.444V13.2c0-9.339-.633-10.393-3.724-11.446L0,1.4V0C.984,0,7.588.14,9.415.14,11.383.14,19.744,0,20.728,0V1.4L19.042,1.9c-3.513,1.053-3.865,1.9-3.865,11.3V37c0,7.373,1.406,8.636,3.795,8.636h.281c2.248,0,4.778-2.107,8.221-7.443l2.037-3.16Z" transform="translate(0 0.067)" fill="#191919"/>
      </g>
    </g>
    <path id="Fill_28" data-name="Fill 28" d="M1.322,11.434l2.242,2.3L10.924,5.8,5.175,0,0,6.607,2.645,9.6Z" transform="translate(25.5 1.316)" fill="#191919"/>
    <path id="Fill_30" data-name="Fill 30" d="M11.538,5.722,5.82,0,0,5.808,5.718,11.53Z" transform="translate(113.356 1.385)" fill="#191919"/>
    <path id="Fill_32" data-name="Fill 32" d="M9.147,3.983,0,5.94V1.956L9.147,0Z" transform="translate(209.22 25.112)" fill="#191919"/>
    <path id="Fill_34" data-name="Fill 34" d="M26.528,53.019A26.52,26.52,0,0,1,2.1,16.163,19.073,19.073,0,0,0,19.771.87a26.559,26.559,0,0,1,31.2,15.32A26.328,26.328,0,0,1,53.056,26.51c0,.552-.022,1.128-.069,1.813a19.043,19.043,0,0,0-10.829,19.6A26.332,26.332,0,0,1,26.528,53.019Zm8.387-22.694c-3.337,0-5.948,1.081-6.963,2.085V42.674A16.24,16.24,0,0,0,41.893,31.782,18.247,18.247,0,0,0,34.915,30.325ZM25.1,10.344h0a16.269,16.269,0,0,0-2.776.485V34.791l-4.383,5.5A16.246,16.246,0,0,0,25.1,42.674V10.344ZM14.632,15.462a16.212,16.212,0,0,0,0,22.095Zm13.32,6.173V29.19a19.388,19.388,0,0,1,8.01-1.822,16.419,16.419,0,0,1,6.651,1.4,16.448,16.448,0,0,0,.157-2.256,16.133,16.133,0,0,0-1.144-5.993,16.41,16.41,0,0,1-7.946,1.989A19.947,19.947,0,0,1,27.952,21.635Zm0-11.291V18.86a12.5,12.5,0,0,0,4.5.719,17.594,17.594,0,0,0,7.769-1.8A16.343,16.343,0,0,0,27.952,10.344Z" transform="translate(32.784 0)" fill="#191919"/>
  </g>
</svg>
